<svg width="34" height="41" viewBox="0 0 34 41" fill="none" xmlns="http://www.w3.org/2000/svg">
<g clip-path="url(#clip0_278_285)">
<g clip-path="url(#clip1_278_285)">
<g clip-path="url(#clip2_278_285)">
<path fill-rule="evenodd" clip-rule="evenodd" d="M33.363 31.4385C29.8792 35.4578 24.7365 38 19 38C8.50659 38 0 29.4934 0 19C0 8.50659 8.50659 0 19 0C24.7364 0 29.879 2.54213 33.3628 6.56127L27.8911 11.2998C25.7345 8.81185 22.551 7.23818 19 7.23818C12.5041 7.23818 7.23807 12.5042 7.23807 19.0001C7.23807 25.496 12.5041 30.762 19 30.762C22.5512 30.762 25.7348 29.1882 27.8914 26.7L33.363 31.4385Z" fill="#070707"/>
<path d="M18.9998 25.3337C22.4976 25.3337 25.3332 22.4981 25.3332 19.0003C25.3332 15.5025 22.4976 12.667 18.9998 12.667C15.502 12.667 12.6665 15.5025 12.6665 19.0003C12.6665 22.4981 15.502 25.3337 18.9998 25.3337Z" fill="#EF2B10"/>
</g>
</g>
</g>
<defs>
<clipPath id="clip0_278_285">
<rect width="34" height="38" fill="white"/>
</clipPath>
<clipPath id="clip1_278_285">
<rect width="34" height="38" fill="white"/>
</clipPath>
<clipPath id="clip2_278_285">
<rect width="34" height="38" fill="white"/>
</clipPath>
</defs>
</svg>
