<svg width="21" height="20" viewBox="0 0 21 20" fill="none" xmlns="http://www.w3.org/2000/svg">
<path d="M10.5 2.5V4.375M15.8033 4.69667L14.4775 6.0225M18 10H16.125M15.8033 15.3033L14.4775 13.9775M10.5 15.625V17.5M6.5225 13.9775L5.19667 15.3033M4.875 10H3M6.5225 6.0225L5.19667 4.69667M13.625 10C13.625 10.8288 13.2958 11.6237 12.7097 12.2097C12.1237 12.7958 11.3288 13.125 10.5 13.125C9.6712 13.125 8.87634 12.7958 8.29029 12.2097C7.70424 11.6237 7.375 10.8288 7.375 10C7.375 9.1712 7.70424 8.37634 8.29029 7.79029C8.87634 7.20424 9.6712 6.875 10.5 6.875C11.3288 6.875 12.1237 7.20424 12.7097 7.79029C13.2958 8.37634 13.625 9.1712 13.625 10Z" stroke="#9C9C9C" stroke-width="1.5" stroke-linecap="round" stroke-linejoin="round"/>
</svg>
