<svg width="22" height="16" viewBox="0 0 22 16" fill="none" xmlns="http://www.w3.org/2000/svg">
<path fill-rule="evenodd" clip-rule="evenodd" d="M6.36804 0.743457C6.96249 0.73242 7.55608 0.793365 8.13588 0.924961C8.62405 1.03154 9.08753 1.22987 9.50169 1.5094C9.8842 1.78737 10.1868 2.16106 10.3793 2.59298C10.6004 3.12409 10.7071 3.69586 10.6924 4.27098C10.7175 4.90247 10.5562 5.52739 10.2286 6.06786C9.884 6.57832 9.40765 6.98599 8.8501 7.24763C9.60674 7.45162 10.2658 7.91887 10.7087 8.56535C11.1339 9.25034 11.3476 10.0455 11.3231 10.8514C11.3371 11.4939 11.2043 12.1311 10.9347 12.7145C10.6855 13.2234 10.3206 13.6669 9.86924 14.0095C9.40455 14.3484 8.88163 14.5991 8.32646 14.7492C7.75073 14.9084 7.15597 14.9884 6.55862 14.9869H0V0.743457H6.36804ZM5.98961 6.50438C6.45667 6.52363 6.91644 6.38381 7.29371 6.10779C7.47439 5.94694 7.61494 5.74606 7.70413 5.5212C7.79332 5.29634 7.82867 5.05373 7.80736 4.81277C7.81945 4.53133 7.76341 4.25114 7.64401 3.996C7.54272 3.79286 7.38522 3.62308 7.19025 3.50685C6.99277 3.3789 6.7709 3.2933 6.53865 3.25547C6.28667 3.20665 6.03025 3.18445 5.77362 3.18922H2.97121V6.51708H5.98961V6.50438ZM6.15296 12.5684C6.43542 12.5722 6.7173 12.5418 6.99241 12.4777C7.24383 12.4221 7.48227 12.3189 7.69483 12.1736C7.90307 12.0284 8.07131 11.833 8.18398 11.6055C8.31462 11.3155 8.37465 10.9985 8.35913 10.6808C8.38746 10.3912 8.3491 10.099 8.24701 9.82653C8.14492 9.55407 7.9818 9.30861 7.77015 9.10895C7.32157 8.77855 6.77183 8.61488 6.21558 8.64612H2.97121V12.5684H6.15296Z" fill="white"/>
<path fill-rule="evenodd" clip-rule="evenodd" d="M15.5548 12.5157C15.788 12.7319 16.0627 12.8983 16.3623 13.0051C16.6618 13.1118 16.9799 13.1565 17.2972 13.1364C17.8003 13.1492 18.2936 12.9961 18.7012 12.7008C19.0327 12.4853 19.2838 12.1662 19.4154 11.7933H21.7849C21.5324 12.855 20.9159 13.7945 20.0425 14.4487C19.2046 15.0049 18.2144 15.2865 17.2092 15.2546C16.4918 15.264 15.7798 15.1291 15.1156 14.858C14.5147 14.6074 13.9758 14.2286 13.5365 13.7481C13.0989 13.2446 12.7627 12.6613 12.5464 12.0302C12.3036 11.3248 12.1848 10.5827 12.1952 9.83671C12.1908 9.10327 12.3136 8.37463 12.5582 7.68317C12.8868 6.71041 13.5151 5.86677 14.353 5.27329C15.1909 4.67982 16.1952 4.36703 17.2219 4.37981C17.9799 4.36396 18.7295 4.54136 19.3999 4.89528C20.006 5.22761 20.5288 5.69304 20.9291 6.25655C21.3386 6.84785 21.632 7.5115 21.794 8.21225C21.9716 8.96474 22.0349 9.73966 21.9818 10.511H14.9241C14.8669 11.2357 15.093 11.9543 15.5548 12.5157ZM18.6513 7.09873C18.4537 6.90118 18.2162 6.74826 17.9546 6.65026C17.693 6.55226 17.4135 6.51147 17.1348 6.53062C16.7651 6.51652 16.398 6.59844 16.0694 6.76839C15.8088 6.91182 15.5788 7.10481 15.3924 7.3365C15.2271 7.55372 15.104 7.79997 15.0293 8.06251C14.9621 8.28147 14.9201 8.5074 14.9041 8.73589H19.2756C19.2375 8.14024 19.0206 7.56996 18.6531 7.09964L18.6513 7.09873Z" fill="white"/>
<path d="M14.3406 1.69449H19.8183V3.09478H14.3406V1.69449Z" fill="white"/>
</svg>
