<svg width="84" height="24" viewBox="0 0 84 24" fill="none" xmlns="http://www.w3.org/2000/svg">
<path d="M8.36364 15.0114L4.06818 18.1136L5.76136 13.0682L1.45455 9.95455H6.72727L8.36364 4.90909L10 9.95455H15.2727L10.9659 13.0682L12.6591 18.1136L8.36364 15.0114ZM25.098 15.0114L20.8026 18.1136L22.4957 13.0682L18.1889 9.95455H23.4616L25.098 4.90909L26.7344 9.95455H32.0071L27.7003 13.0682L29.3935 18.1136L25.098 15.0114ZM41.8324 15.0114L37.5369 18.1136L39.2301 13.0682L34.9233 9.95455H40.196L41.8324 4.90909L43.4688 9.95455H48.7415L44.4347 13.0682L46.1278 18.1136L41.8324 15.0114ZM58.5668 15.0114L54.2713 18.1136L55.9645 13.0682L51.6577 9.95455H56.9304L58.5668 4.90909L60.2031 9.95455H65.4759L61.169 13.0682L62.8622 18.1136L58.5668 15.0114ZM75.3011 15.0114L71.0057 18.1136L72.6989 13.0682L68.392 9.95455H73.6648L75.3011 4.90909L76.9375 9.95455H82.2102L77.9034 13.0682L79.5966 18.1136L75.3011 15.0114Z" fill="#EF2B10"/>
</svg>
