<svg width="22" height="22" viewBox="0 0 22 22" fill="none" xmlns="http://www.w3.org/2000/svg">
<path d="M16.8623 6.43695C16.1338 6.43837 15.5414 5.84852 15.54 5.12002C15.5386 4.39153 16.1284 3.79919 16.8573 3.79777C17.5861 3.79634 18.1784 4.38654 18.1799 5.11503C18.1809 5.84353 17.5911 6.43552 16.8623 6.43695Z" fill="black"/>
<path fill-rule="evenodd" clip-rule="evenodd" d="M11.0105 16.6476C7.89166 16.6537 5.35801 14.1303 5.35196 11.0107C5.34589 7.89179 7.86991 5.35774 10.9888 5.35169C14.1084 5.34563 16.6424 7.87041 16.6484 10.989C16.6545 14.1086 14.1297 16.6415 11.0105 16.6476ZM10.9927 7.33366C8.96835 7.33722 7.32961 8.98203 7.33318 11.0068C7.33709 13.0319 8.98225 14.6703 11.0066 14.6663C13.0317 14.6624 14.6704 13.018 14.6665 10.9929C14.6626 8.96777 13.0174 7.32974 10.9927 7.33366Z" fill="black"/>
<path fill-rule="evenodd" clip-rule="evenodd" d="M3.77594 0.592606C4.47449 0.318886 5.27389 0.131415 6.44431 0.0761734C7.6176 0.0198666 7.99216 0.00703177 10.9788 0.00133157C13.9662 -0.00436863 14.3407 0.00702957 15.514 0.059064C16.6848 0.109673 17.4845 0.294295 18.1845 0.565165C18.9087 0.844226 19.5232 1.21988 20.1355 1.82969C20.7478 2.44021 21.1248 3.05252 21.4074 3.77566C21.6808 4.47493 21.8683 5.27364 21.9239 6.44479C21.9795 7.61771 21.993 7.99193 21.9987 10.979C22.0044 13.9656 21.9923 14.3406 21.941 15.5146C21.89 16.6847 21.7058 17.4848 21.4349 18.1844C21.1551 18.9086 20.7802 19.5231 20.1704 20.1354C19.5606 20.748 18.9476 21.1248 18.2244 21.4077C17.5252 21.6808 16.7265 21.8682 15.5561 21.9242C14.3828 21.9798 14.0082 21.993 11.0205 21.9987C8.03421 22.0044 7.65965 21.993 6.48638 21.9413C5.31559 21.89 4.51547 21.7057 3.81585 21.4352C3.09166 21.1551 2.47722 20.7805 1.86492 20.1703C1.25227 19.5601 0.874853 18.9475 0.592587 18.2243C0.318869 17.5254 0.132098 16.7264 0.0761499 15.5563C0.0201995 14.3826 0.00701714 14.0077 0.00131914 11.021C-0.00440086 8.03399 0.00736694 7.65977 0.0586819 6.48648C0.110367 5.31534 0.293917 4.51556 0.564785 3.81522C0.844551 3.09136 1.21948 2.47728 1.83 1.86462C2.4398 1.25232 3.0528 0.874516 3.77594 0.592606ZM4.52974 19.5872C4.91786 19.7366 5.50021 19.9148 6.57263 19.9615C7.73306 20.0117 8.08054 20.0228 11.0169 20.017C13.9544 20.0117 14.3019 19.9992 15.462 19.9447C16.5333 19.8937 17.1157 19.7134 17.5027 19.5623C18.0163 19.3616 18.382 19.1218 18.7661 18.7372C19.1503 18.3512 19.3881 17.9845 19.5869 17.4709C19.7366 17.0824 19.9145 16.4997 19.9612 15.4273C20.0121 14.2675 20.0228 13.9197 20.0171 10.9825C20.0118 8.04611 19.9993 7.69826 19.9441 6.53816C19.8934 5.46644 19.7135 4.88408 19.562 4.49738C19.3613 3.98309 19.1222 3.61813 18.7366 3.23357C18.3509 2.849 17.9842 2.61199 17.4699 2.41312C17.0825 2.26308 16.4994 2.08558 15.4278 2.0389C14.2673 1.98793 13.9195 1.97759 10.9824 1.9833C8.04598 1.989 7.6985 2.00076 6.53841 2.05565C5.46636 2.10661 4.8847 2.28659 4.49694 2.43807C3.98372 2.63872 3.61805 2.87716 3.2335 3.26315C2.84965 3.64913 2.61193 4.01516 2.41307 4.52981C2.2641 4.91759 2.08482 5.50066 2.03885 6.57238C1.98823 7.73283 1.97755 8.08068 1.98325 11.0171C1.9886 13.9542 2.00107 14.3021 2.0556 15.4615C2.10585 16.5339 2.28725 17.1155 2.43802 17.5037C2.63867 18.0165 2.87782 18.3822 3.26309 18.7668C3.64907 19.1499 4.01581 19.3883 4.52974 19.5872Z" fill="black"/>
</svg>
