<svg width="30" height="28" viewBox="0 0 30 28" fill="none" xmlns="http://www.w3.org/2000/svg">
<g filter="url(#filter0_d_179_251)">
<path d="M18.7498 21.41C19.816 21.7196 20.9208 21.8761 22.031 21.875C23.8165 21.8776 25.5788 21.4705 27.1823 20.685C27.2297 19.5646 26.9106 18.4593 26.2733 17.5367C25.636 16.614 24.7153 15.9242 23.6507 15.5719C22.5861 15.2196 21.4356 15.2239 20.3737 15.5842C19.3118 15.9446 18.3964 16.6413 17.766 17.5688M18.7498 21.41V21.4062C18.7498 20.015 18.3923 18.7063 17.766 17.5688M18.7498 21.41V21.5425C16.3441 22.9914 13.5881 23.7547 10.7798 23.75C7.86604 23.75 5.13979 22.9437 2.81229 21.5425L2.81104 21.4062C2.81008 19.6368 3.39805 17.9174 4.48226 16.5191C5.56648 15.1207 7.08525 14.123 8.79915 13.6832C10.513 13.2435 12.3246 13.3866 13.9481 14.0901C15.5717 14.7936 16.9149 16.0175 17.766 17.5688M14.9998 5.46875C14.9998 6.58763 14.5553 7.66069 13.7641 8.45186C12.973 9.24303 11.8999 9.6875 10.781 9.6875C9.66215 9.6875 8.5891 9.24303 7.79793 8.45186C7.00676 7.66069 6.56229 6.58763 6.56229 5.46875C6.56229 4.34987 7.00676 3.27681 7.79793 2.48564C8.5891 1.69447 9.66215 1.25 10.781 1.25C11.8999 1.25 12.973 1.69447 13.7641 2.48564C14.5553 3.27681 14.9998 4.34987 14.9998 5.46875ZM25.3123 8.28125C25.3123 9.15149 24.9666 9.98609 24.3512 10.6014C23.7359 11.2168 22.9013 11.5625 22.031 11.5625C21.1608 11.5625 20.3262 11.2168 19.7108 10.6014C19.0955 9.98609 18.7498 9.15149 18.7498 8.28125C18.7498 7.41101 19.0955 6.57641 19.7108 5.96106C20.3262 5.3457 21.1608 5 22.031 5C22.9013 5 23.7359 5.3457 24.3512 5.96106C24.9666 6.57641 25.3123 7.41101 25.3123 8.28125Z" stroke="#FF6A00" stroke-width="1.5" stroke-linecap="round" stroke-linejoin="round" shape-rendering="crispEdges"/>
</g>
<defs>
<filter id="filter0_d_179_251" x="-1.93896" y="0.5" width="33.876" height="32" filterUnits="userSpaceOnUse" color-interpolation-filters="sRGB">
<feFlood flood-opacity="0" result="BackgroundImageFix"/>
<feColorMatrix in="SourceAlpha" type="matrix" values="0 0 0 0 0 0 0 0 0 0 0 0 0 0 0 0 0 0 127 0" result="hardAlpha"/>
<feOffset dy="4"/>
<feGaussianBlur stdDeviation="2"/>
<feComposite in2="hardAlpha" operator="out"/>
<feColorMatrix type="matrix" values="0 0 0 0 0 0 0 0 0 0 0 0 0 0 0 0 0 0 0.25 0"/>
<feBlend mode="normal" in2="BackgroundImageFix" result="effect1_dropShadow_179_251"/>
<feBlend mode="normal" in="SourceGraphic" in2="effect1_dropShadow_179_251" result="shape"/>
</filter>
</defs>
</svg>
