<svg width="22" height="22" viewBox="0 0 22 22" fill="none" xmlns="http://www.w3.org/2000/svg">
<path fill-rule="evenodd" clip-rule="evenodd" d="M11 22C17.0751 22 22 17.0751 22 11C22 4.92487 17.0751 0 11 0C4.92487 0 0 4.92487 0 11C0 17.0751 4.92487 22 11 22ZM13.3858 19.9718C12.6245 20.1737 11.8248 20.2812 11 20.2812C9.75178 20.2812 8.56112 20.0348 7.47399 19.588C8.5056 15.7802 11.3583 13.053 14.6263 11.8384C15.1931 14.5852 14.7709 17.531 13.3858 19.9718ZM15.8286 18.9279C16.715 16.5138 16.8895 13.8546 16.3463 11.3473C17.6578 11.0825 18.9955 11.0582 20.2765 11.2998C20.1739 14.5318 18.419 17.3468 15.8286 18.9279ZM20.1559 9.47095C18.7377 9.2629 17.2774 9.32375 15.8514 9.62835C15.5751 8.8532 15.2264 8.10647 14.8109 7.39742C15.9829 6.72049 17.0516 5.86554 17.9666 4.86731C19.0881 6.14032 19.8662 7.72317 20.1559 9.47095ZM16.6644 3.64716C15.8392 4.5507 14.8683 5.31908 13.8033 5.91797C13.0845 5.00434 12.2529 4.18177 11.3257 3.47549L11.3033 3.45844L11.2801 3.44293C11.28 3.44286 11.278 3.44152 11.2737 3.43853C11.2688 3.43504 11.2622 3.43032 11.2537 3.42417C11.2366 3.41173 11.2154 3.39603 11.19 3.37698C11.1611 3.35537 11.1321 3.33351 11.101 3.31002L11.0946 3.30524C11.0694 3.28621 11.0428 3.26607 11.0135 3.24412C10.9504 3.19662 10.8811 3.14494 10.8174 3.09932C10.7729 3.06744 10.709 3.02235 10.6437 2.98258L10.6023 2.95393C10.5173 2.8951 10.3896 2.80665 10.2737 2.73547C10.1654 2.65954 10.019 2.57304 9.9231 2.51688C9.83033 2.46255 9.73041 2.40553 9.66832 2.37009L9.62067 2.34285C9.60926 2.33618 9.59933 2.33065 9.59521 2.32835L9.59441 2.3279C9.58718 2.32386 9.57914 2.31944 9.57191 2.31546L9.56217 2.31008C9.54831 2.30246 9.53446 2.29484 9.52006 2.28681C9.50356 2.27764 9.49022 2.27007 9.48049 2.2644L9.47379 2.25971L9.4501 2.24524C9.3644 2.19287 9.27509 2.14505 9.22662 2.11909L9.20872 2.1095L9.18799 2.09834L9.16672 2.08829C9.12072 2.06657 9.05098 2.03333 8.97239 1.99587L8.97054 1.99499C8.94587 1.98323 8.9202 1.971 8.89428 1.95865C9.57082 1.80171 10.2757 1.71875 11 1.71875C13.1326 1.71875 15.0972 2.438 16.6644 3.64716ZM6.44989 2.90873C5.07327 3.68454 3.91452 4.8015 3.08836 6.14491C4.07112 6.64333 5.12668 6.99549 6.21407 7.18908L6.21641 7.1895L6.21875 7.18994C7.5625 7.43655 8.94778 7.42995 10.304 7.18544C10.9262 7.07311 11.5372 6.90611 12.1301 6.68919C11.5728 6.03009 10.9469 5.43212 10.2622 4.90844C10.2153 4.87592 10.1633 4.83732 10.1208 4.80552C10.0887 4.78146 10.0508 4.75293 10.0135 4.72478L10.0126 4.72403C9.98784 4.70538 9.9634 4.68695 9.94101 4.67012C9.87976 4.62406 9.8241 4.58264 9.77801 4.54964C9.74806 4.52818 9.73086 4.5166 9.72378 4.51183C9.72115 4.51005 9.71992 4.50922 9.71995 4.50918L9.69362 4.49433L9.66264 4.47332C9.61706 4.44239 9.57647 4.4143 9.53927 4.38855L9.53892 4.38831C9.45742 4.33192 9.39208 4.28671 9.3258 4.24738L9.28235 4.22156L9.24323 4.19192C9.24438 4.1928 9.24371 4.19236 9.24086 4.19045L9.24048 4.1902C9.23354 4.18559 9.21523 4.17345 9.1815 4.1525C9.13619 4.12442 9.08064 4.09125 9.02128 4.05646C8.93706 4.00716 8.86037 3.9634 8.79969 3.92879L8.79251 3.92469C8.76719 3.91023 8.74483 3.89746 8.72613 3.88668L8.72428 3.88561L8.7096 3.8775L8.70265 3.87369C8.68887 3.86612 8.67048 3.85598 8.65174 3.84557C8.62981 3.83336 8.60321 3.81838 8.57732 3.80322C8.56316 3.79493 8.53676 3.77939 8.5072 3.76021C8.47086 3.73856 8.43188 3.71762 8.38548 3.6927L8.38341 3.69157C8.3279 3.6653 8.2588 3.63237 8.18548 3.59738C8.0475 3.53159 7.89439 3.45861 7.78814 3.40919L7.77669 3.40387L7.72867 3.37986C7.56039 3.30185 7.35895 3.22547 7.13335 3.13993L7.13258 3.13964C7.08345 3.12102 7.0332 3.10196 6.98188 3.08236C6.84273 3.03242 6.69824 2.98695 6.54688 2.93931L6.54652 2.9392C6.51462 2.92916 6.48241 2.91903 6.44989 2.90873ZM2.30447 7.74792C3.43699 8.31944 4.65036 8.72272 5.89879 8.94523C7.46154 9.23175 9.0627 9.22223 10.6209 8.94128C11.5079 8.78115 12.3738 8.5261 13.204 8.18624C13.5736 8.80057 13.8844 9.44794 14.1316 10.12C10.4035 11.4628 7.15009 14.4968 5.86338 18.7314C3.36503 17.0683 1.71875 14.2264 1.71875 11C1.71875 9.85581 1.9258 8.75998 2.30447 7.74792Z" fill="#060318"/>
</svg>
