<svg width="24" height="27" viewBox="0 0 24 27" fill="none" xmlns="http://www.w3.org/2000/svg">
<path d="M16.6875 11.625V6C16.6875 4.7568 16.1937 3.56451 15.3146 2.68544C14.4355 1.80636 13.2432 1.3125 12 1.3125C10.7568 1.3125 9.56456 1.80636 8.68548 2.68544C7.8064 3.56451 7.31254 4.7568 7.31254 6V11.625M21.5075 9.13375L23.0863 24.1337C23.1738 24.965 22.5238 25.6875 21.6875 25.6875H2.31254C2.1153 25.6877 1.92022 25.6464 1.73998 25.5663C1.55973 25.4862 1.39835 25.3691 1.26632 25.2226C1.13429 25.0761 1.03456 24.9034 0.97361 24.7158C0.91266 24.5282 0.891854 24.3299 0.912542 24.1337L2.49254 9.13375C2.52899 8.7882 2.69207 8.46838 2.95036 8.23595C3.20864 8.00352 3.54383 7.87494 3.89129 7.875H20.1088C20.8288 7.875 21.4325 8.41875 21.5075 9.13375ZM7.78129 11.625C7.78129 11.7493 7.73191 11.8685 7.644 11.9565C7.55609 12.0444 7.43686 12.0938 7.31254 12.0938C7.18822 12.0938 7.06899 12.0444 6.98109 11.9565C6.89318 11.8685 6.84379 11.7493 6.84379 11.625C6.84379 11.5007 6.89318 11.3815 6.98109 11.2935C7.06899 11.2056 7.18822 11.1562 7.31254 11.1562C7.43686 11.1562 7.55609 11.2056 7.644 11.2935C7.73191 11.3815 7.78129 11.5007 7.78129 11.625ZM17.1563 11.625C17.1563 11.7493 17.1069 11.8685 17.019 11.9565C16.9311 12.0444 16.8119 12.0938 16.6875 12.0938C16.5632 12.0938 16.444 12.0444 16.3561 11.9565C16.2682 11.8685 16.2188 11.7493 16.2188 11.625C16.2188 11.5007 16.2682 11.3815 16.3561 11.2935C16.444 11.2056 16.5632 11.1562 16.6875 11.1562C16.8119 11.1562 16.9311 11.2056 17.019 11.2935C17.1069 11.3815 17.1563 11.5007 17.1563 11.625Z" stroke="#FF6A00" stroke-width="1.5" stroke-linecap="round" stroke-linejoin="round"/>
</svg>
