<svg width="22" height="22" viewBox="0 0 22 22" fill="none" xmlns="http://www.w3.org/2000/svg">
<path fill-rule="evenodd" clip-rule="evenodd" d="M11.0099 -1C4.36875 -1 -1 4.40833 -1 11.0992C-1 16.4475 2.43994 20.9748 7.21205 22.5771C7.80869 22.6976 8.02724 22.3168 8.02724 21.9965C8.02724 21.716 8.00757 20.7545 8.00757 19.7527C4.6667 20.474 3.97099 18.3104 3.97099 18.3104C3.43409 16.9082 2.63858 16.5478 2.63858 16.5478C1.54511 15.8066 2.71823 15.8066 2.71823 15.8066C3.93117 15.8868 4.56763 17.0486 4.56763 17.0486C5.64118 18.8913 7.37111 18.3707 8.06706 18.0501C8.16638 17.2688 8.48473 16.728 8.82275 16.4276C6.15817 16.1471 3.35469 15.1055 3.35469 10.458C3.35469 9.13594 3.8316 8.05428 4.58729 7.21304C4.46807 6.91263 4.0504 5.67043 4.70677 4.00787C4.70677 4.00787 5.72083 3.6873 8.00732 5.24981C8.98625 4.98497 9.99581 4.85024 11.0099 4.84911C12.024 4.84911 13.0577 4.98948 14.0123 5.24981C16.299 3.6873 17.3131 4.00787 17.3131 4.00787C17.9695 5.67043 17.5515 6.91263 17.4323 7.21304C18.2079 8.05428 18.6652 9.13594 18.6652 10.458C18.6652 15.1055 15.8617 16.1269 13.1772 16.4276C13.6148 16.8081 13.9924 17.5292 13.9924 18.6711C13.9924 20.2936 13.9727 21.5957 13.9727 21.9962C13.9727 22.3168 14.1915 22.6976 14.7879 22.5774C19.56 20.9745 22.9999 16.4475 22.9999 11.0992C23.0196 4.40833 17.6312 -1 11.0099 -1Z" fill="black"/>
</svg>
